AcariSans-BlackItalic.ufo
<glyph name="eight" format="2">
  <advance width="1229"/>
  <unicode hex="0038"/>
  <outline>
    <contour>
      <point x="492" y="-20" type="curve" smooth="yes"/>
      <point x="810" y="-20"/>
      <point x="1152" y="145"/>
      <point x="1152" y="510" type="curve" smooth="yes"/>
      <point x="1152" y="616"/>
      <point x="1116" y="707"/>
      <point x="1026" y="768" type="curve"/>
      <point x="1137" y="857"/>
      <point x="1225" y="984"/>
      <point x="1225" y="1130" type="curve" smooth="yes"/>
      <point x="1225" y="1362"/>
      <point x="1030" y="1468"/>
      <point x="821" y="1468" type="curve" smooth="yes"/>
      <point x="550" y="1468"/>
      <point x="260" y="1294"/>
      <point x="260" y="995" type="curve" smooth="yes"/>
      <point x="260" y="922"/>
      <point x="280" y="854"/>
      <point x="326" y="797" type="curve"/>
      <point x="154" y="703"/>
      <point x="36" y="535"/>
      <point x="36" y="336" type="curve" smooth="yes"/>
      <point x="36" y="90"/>
      <point x="276" y="-20"/>
    </contour>
    <contour>
      <point x="692" y="894" type="curve" smooth="yes"/>
      <point x="622" y="894"/>
      <point x="539" y="914"/>
      <point x="539" y="1000" type="curve" smooth="yes"/>
      <point x="539" y="1123"/>
      <point x="679" y="1200"/>
      <point x="790" y="1200" type="curve" smooth="yes"/>
      <point x="857" y="1200"/>
      <point x="945" y="1183"/>
      <point x="945" y="1099" type="curve" smooth="yes"/>
      <point x="945" y="975"/>
      <point x="803" y="894"/>
    </contour>
    <contour>
      <point x="537" y="243" type="curve" smooth="yes"/>
      <point x="447" y="243"/>
      <point x="323" y="266"/>
      <point x="323" y="380" type="curve" smooth="yes"/>
      <point x="323" y="557"/>
      <point x="501" y="642"/>
      <point x="656" y="642" type="curve" smooth="yes"/>
      <point x="741" y="642"/>
      <point x="870" y="620"/>
      <point x="870" y="510" type="curve" smooth="yes"/>
      <point x="870" y="340"/>
      <point x="686" y="243"/>
    </contour>
  </outline>
</glyph>
<glyph name="R" format="2">
  <advance width="1312"/>
  <unicode hex="0052"/>
  <anchor x="785" y="1620" name="top"/>
  <anchor x="601" y="-120" name="bottom"/>
  <outline>
    <contour>
      <point x="1184.77" y="-2.048" type="line"/>
      <point x="932.864" y="631.808" type="line"/>
      <point x="1137.66" y="705.536"/>
      <point x="1300.48" y="873.472"/>
      <point x="1300.48" y="1101.82" type="curve" smooth="yes"/>
      <point x="1300.48" y="1332.22"/>
      <point x="1088.51" y="1446.91"/>
      <point x="880.64" y="1446.91" type="curve" smooth="yes"/>
      <point x="392.192" y="1446.91" type="line"/>
      <point x="57.344" y="-2.04805" type="line"/>
      <point x="346.112" y="-2.04805" type="line"/>
      <point x="489.472" y="609.28" type="line"/>
      <point x="656.384" y="609.28" type="line"/>
      <point x="871.424" y="-2.04805" type="line"/>
    </contour>
    <contour>
      <point x="751.616" y="840.704" type="curve" smooth="yes"/>
      <point x="544.768" y="840.704" type="line"/>
      <point x="623.616" y="1186.82" type="line"/>
      <point x="826.368" y="1186.82" type="line" smooth="yes"/>
      <point x="904.192" y="1186.82"/>
      <point x="1011.71" y="1167.36"/>
      <point x="1011.71" y="1069.06" type="curve" smooth="yes"/>
      <point x="1011.71" y="932.864"/>
      <point x="879.616" y="840.704"/>
    </contour>
  </outline>
  <guideline angle="90" name="vertical" x="785" y="0"/>
</glyph>
<glyph name="bracketright" format="2">
  <advance width="656"/>
  <unicode hex="005D"/>
  <outline>
    <contour>
      <point x="322.56" y="-190.464" type="line"/>
      <point x="745.472" y="1632.26" type="line"/>
      <point x="280.576" y="1632.26" type="line"/>
      <point x="237.568" y="1443.84" type="line"/>
      <point x="478.208" y="1443.84" type="line"/>
      <point x="145.408" y="0" type="line"/>
      <point x="-96.256" y="0" type="line"/>
      <point x="-142.336" y="-190.464" type="line"/>
    </contour>
  </outline>
</glyph>
<glyph name="b" format="2">
  <advance width="1238"/>
  <unicode hex="0062"/>
  <outline>
    <contour>
      <point x="629.76" y="-20.48" type="curve" smooth="yes"/>
      <point x="987.136" y="-20.48"/>
      <point x="1213.44" y="347.136"/>
      <point x="1213.44" y="676.864" type="curve" smooth="yes"/>
      <point x="1213.44" y="913.408"/>
      <point x="1093.63" y="1084.42"/>
      <point x="847.872" y="1084.42" type="curve" smooth="yes"/>
      <point x="736.256" y="1084.42"/>
      <point x="632.832" y="1055.74"/>
      <point x="549.888" y="982.016" type="curve"/>
      <point x="674.816" y="1443.84" type="line"/>
      <point x="372.736" y="1443.84" type="line"/>
      <point x="26.624" y="0" type="line"/>
      <point x="329.728" y="0" type="line"/>
      <point x="356.352" y="100.352" type="line"/>
      <point x="416.768" y="13.312"/>
      <point x="527.36" y="-20.48"/>
    </contour>
    <contour>
      <point x="591.872" y="239.616" type="curve" smooth="yes"/>
      <point x="478.208" y="239.616"/>
      <point x="408.576" y="293.888"/>
      <point x="408.576" y="416.768" type="curve" smooth="yes"/>
      <point x="408.576" y="620.544"/>
      <point x="537.6" y="829.44"/>
      <point x="753.664" y="829.44" type="curve" smooth="yes"/>
      <point x="865.28" y="829.44"/>
      <point x="933.888" y="774.144"/>
      <point x="933.888" y="654.336" type="curve" smooth="yes"/>
      <point x="933.888" y="458.752"/>
      <point x="808.96" y="239.616"/>
    </contour>
  </outline>
</glyph>
<glyph name="v" format="2">
  <advance width="1079"/>
  <unicode hex="0076"/>
  <outline>
    <contour>
      <point x="537.6" y="0" type="line"/>
      <point x="1226.75" y="1063.94" type="line"/>
      <point x="906.24" y="1063.94" type="line"/>
      <point x="498.688" y="375.808" type="line"/>
      <point x="413.696" y="1063.94" type="line"/>
      <point x="100.352" y="1063.94" type="line"/>
      <point x="301.056" y="0" type="line"/>
    </contour>
  </outline>
</glyph>
<glyph name="w" format="2">
  <advance width="1562"/>
  <unicode hex="0077"/>
  <anchor x="915" y="1192" name="top"/>
  <outline>
    <contour>
      <point x="456.704" y="-5.12" type="line"/>
      <point x="803.84" y="645.12" type="line"/>
      <point x="849.92" y="0" type="line"/>
      <point x="1111.04" y="0" type="line"/>
      <point x="1694.72" y="1063.94" type="line"/>
      <point x="1381.38" y="1063.94" type="line"/>
      <point x="1063.94" y="457.728" type="line"/>
      <point x="1019.9" y="1063.94" type="line"/>
      <point x="771.072" y="1063.94" type="line"/>
      <point x="444.416" y="455.68" type="line"/>
      <point x="417.792" y="1063.94" type="line"/>
      <point x="121.856" y="1063.94" type="line"/>
      <point x="207.872" y="-5.12" type="line"/>
    </contour>
  </outline>
  <guideline angle="90" name="vertical" x="915" y="0"/>
</glyph>
<glyph name="brokenbar" format="2">
  <advance width="664"/>
  <unicode hex="00A6"/>
  <outline>
    <contour>
      <point x="503.808" y="748.544" type="line"/>
      <point x="679.936" y="1510.4" type="line"/>
      <point x="444.416" y="1510.4" type="line"/>
      <point x="268.288" y="748.544" type="line"/>
    </contour>
    <contour>
      <point x="259.072" y="-314.368" type="line"/>
      <point x="430.08" y="430.08" type="line"/>
      <point x="195.584" y="430.08" type="line"/>
      <point x="23.552" y="-314.368" type="line"/>
    </contour>
  </outline>
</glyph>
<glyph name="section" format="2">
  <advance width="1124"/>
  <unicode hex="00A7"/>
  <outline>
    <contour>
      <point x="552.96" y="-18.432" type="curve" smooth="yes"/>
      <point x="783.36" y="-18.432"/>
      <point x="961.536" y="80.896"/>
      <point x="961.536" y="293.888" type="curve" smooth="yes"/>
      <point x="961.536" y="488.448"/>
      <point x="774.144" y="580.608"/>
      <point x="657.408" y="610.304" type="curve" smooth="yes"/>
      <point x="539.648" y="640" type="line" smooth="yes"/>
      <point x="491.52" y="652.288"/>
      <point x="441.344" y="688.128"/>
      <point x="441.344" y="739.328" type="curve" smooth="yes"/>
      <point x="441.344" y="801.792"/>
      <point x="529.408" y="858.112"/>
      <point x="583.68" y="873.472" type="curve"/>
      <point x="455.68" y="999.424" type="line"/>
      <point x="299.008" y="922.624"/>
      <point x="211.968" y="815.104"/>
      <point x="211.968" y="701.44" type="curve" smooth="yes"/>
      <point x="211.968" y="599.04"/>
      <point x="292.864" y="513.024"/>
      <point x="418.816" y="480.256" type="curve" smooth="yes"/>
      <point x="602.112" y="433.152" type="line" smooth="yes"/>
      <point x="653.312" y="419.84"/>
      <point x="732.16" y="375.808"/>
      <point x="732.16" y="315.392" type="curve" smooth="yes"/>
      <point x="732.16" y="245.76"/>
      <point x="645.12" y="202.752"/>
      <point x="556.032" y="202.752" type="curve" smooth="yes"/>
      <point x="468.992" y="202.752"/>
      <point x="374.784" y="256"/>
      <point x="344.064" y="354.304" type="curve"/>
      <point x="105.472" y="240.64" type="line"/>
      <point x="166.912" y="82.944"/>
      <point x="343.04" y="-18.432"/>
    </contour>
    <contour>
      <point x="848.896" y="447.488" type="line"/>
      <point x="988.16" y="519.168"/>
      <point x="1054.72" y="610.304"/>
      <point x="1054.72" y="732.16" type="curve" smooth="yes"/>
      <point x="1054.72" y="867.328"/>
      <point x="986.112" y="944.128"/>
      <point x="827.392" y="985.088" type="curve" smooth="yes"/>
      <point x="653.312" y="1030.14" type="line" smooth="yes"/>
      <point x="563.2" y="1053.7"/>
      <point x="529.408" y="1095.68"/>
      <point x="529.408" y="1148.93" type="curve" smooth="yes"/>
      <point x="529.408" y="1217.54"/>
      <point x="598.016" y="1255.42"/>
      <point x="694.272" y="1255.42" type="curve" smooth="yes"/>
      <point x="788.48" y="1255.42"/>
      <point x="869.376" y="1227.78"/>
      <point x="917.504" y="1174.53" type="curve"/>
      <point x="1084.42" y="1319.94" type="line"/>
      <point x="996.352" y="1412.1"/>
      <point x="885.76" y="1468.42"/>
      <point x="723.968" y="1468.42" type="curve" smooth="yes"/>
      <point x="477.184" y="1468.42"/>
      <point x="306.176" y="1344.51"/>
      <point x="306.176" y="1166.34" type="curve" smooth="yes"/>
      <point x="306.176" y="960.512"/>
      <point x="504.832" y="879.616"/>
      <point x="632.832" y="846.848" type="curve" smooth="yes"/>
      <point x="721.92" y="824.32" type="line" smooth="yes"/>
      <point x="761.856" y="814.08"/>
      <point x="824.32" y="787.456"/>
      <point x="824.32" y="731.136" type="curve" smooth="yes"/>
      <point x="824.32" y="666.624"/>
      <point x="771.072" y="604.16"/>
      <point x="685.056" y="577.536" type="curve"/>
    </contour>
  </outline>
  <guideline angle="165.619" x="657" y="1029"/>
  <guideline angle="165.619" x="657" y="419"/>
  <guideline angle="345.51" x="633" y="847"/>
  <guideline angle="165.619" x="657" y="610"/>
</glyph>
<glyph name="micro" format="2">
  <advance width="1373"/>
  <unicode hex="00B5"/>
  <outline>
    <contour>
      <point x="473" y="-24" type="curve" smooth="yes"/>
      <point x="589" y="-24"/>
      <point x="703" y="16"/>
      <point x="788" y="94" type="curve"/>
      <point x="769" y="0" type="line"/>
      <point x="1058" y="0" type="line"/>
      <point x="1303" y="1064" type="line"/>
      <point x="1006" y="1064" type="line"/>
      <point x="893" y="570" type="line" smooth="yes"/>
      <point x="853" y="393"/>
      <point x="790" y="247"/>
      <point x="582" y="247" type="curve" smooth="yes"/>
      <point x="511" y="247"/>
      <point x="444" y="261"/>
      <point x="444" y="349" type="curve" smooth="yes"/>
      <point x="444" y="379"/>
      <point x="450" y="411"/>
      <point x="456" y="439" type="curve" smooth="yes"/>
      <point x="599" y="1064" type="line"/>
      <point x="307" y="1064" type="line"/>
      <point x="-22" y="-266" type="line"/>
      <point x="251" y="-266" type="line"/>
      <point x="342" y="-2" type="line"/>
      <point x="380" y="-16"/>
      <point x="424" y="-24"/>
    </contour>
  </outline>
</glyph>
<glyph name="brevecomb" format="2">
  <unicode hex="0306"/>
  <anchor x="-255" y="1192" name="_top"/>
  <outline>
    <contour>
      <point x="-265.464" y="1191.94" type="curve" smooth="yes"/>
      <point x="-59.64" y="1191.94"/>
      <point x="60.1681" y="1259.52"/>
      <point x="109.32" y="1468.42" type="curve"/>
      <point x="-75" y="1468.42" type="line"/>
      <point x="-96.504" y="1389.57"/>
      <point x="-181.496" y="1347.58"/>
      <point x="-258.296" y="1347.58" type="curve" smooth="yes"/>
      <point x="-316.664" y="1347.58"/>
      <point x="-359.672" y="1360.9"/>
      <point x="-359.672" y="1427.46" type="curve" smooth="yes"/>
      <point x="-359.672" y="1440.77"/>
      <point x="-358.648" y="1455.1"/>
      <point x="-355.576" y="1468.42" type="curve"/>
      <point x="-538.872" y="1468.42" type="line"/>
      <point x="-546.04" y="1442.82"/>
      <point x="-550.136" y="1416.19"/>
      <point x="-550.136" y="1388.54" type="curve" smooth="yes"/>
      <point x="-550.136" y="1224.7"/>
      <point x="-400.632" y="1191.94"/>
    </contour>
  </outline>
</glyph>
<glyph name="hookabovecomb" format="2">
  <unicode hex="0309"/>
  <anchor x="-188" y="1092" name="_top"/>
  <outline>
    <contour>
      <point x="-239.616" y="1091.58" type="line"/>
      <point x="-97.28" y="1113.09"/>
      <point x="88.064" y="1152"/>
      <point x="88.064" y="1332.22" type="curve" smooth="yes"/>
      <point x="88.064" y="1474.56"/>
      <point x="-81.8796" y="1511.42"/>
      <point x="-198.656" y="1511.42" type="curve" smooth="yes"/>
      <point x="-253.952" y="1511.42" type="line"/>
      <point x="-287" y="1343" type="line"/>
      <point x="-258" y="1343" type="line" smooth="yes"/>
      <point x="-202.98" y="1343"/>
      <point x="-105.472" y="1329.43"/>
      <point x="-105.472" y="1284.1" type="curve" smooth="yes"/>
      <point x="-105.472" y="1229.82"/>
      <point x="-208.896" y="1208.32"/>
      <point x="-248.832" y="1203.2" type="curve"/>
    </contour>
  </outline>
</glyph>
<glyph name="beta" format="2">
  <advance width="1176"/>
  <unicode hex="03B2"/>
  <outline>
    <contour>
      <point x="805" y="1329" type="qcurve" smooth="yes"/>
      <point x="843" y="1329"/>
      <point x="893" y="1296"/>
      <point x="916" y="1230"/>
      <point x="913" y="1133"/>
      <point x="899" y="1069" type="qcurve" smooth="yes"/>
      <point x="871" y="949"/>
      <point x="774" y="846"/>
      <point x="694" y="846" type="qcurve" smooth="yes"/>
      <point x="590" y="846" type="line"/>
      <point x="536" y="610" type="line"/>
      <point x="667" y="610" type="line" smooth="yes"/>
      <point x="712" y="610"/>
      <point x="779" y="582"/>
      <point x="817" y="529"/>
      <point x="826" y="451"/>
      <point x="814" y="401" type="qcurve" smooth="yes"/>
      <point x="786" y="281"/>
      <point x="674" y="174"/>
      <point x="574" y="174" type="qcurve" smooth="yes"/>
      <point x="526" y="174"/>
      <point x="459" y="221"/>
      <point x="426" y="308"/>
      <point x="425" y="431"/>
      <point x="443" y="508" type="qcurve" smooth="yes"/>
      <point x="571" y="1061" type="line" smooth="yes"/>
      <point x="604" y="1206"/>
      <point x="714" y="1329"/>
    </contour>
    <contour>
      <point x="858" y="1509" type="qcurve" smooth="yes"/>
      <point x="739" y="1509"/>
      <point x="547" y="1459"/>
      <point x="402" y="1357"/>
      <point x="307" y="1204"/>
      <point x="284" y="1102" type="qcurve" smooth="yes"/>
      <point x="-67" y="-416" type="line"/>
      <point x="230" y="-416" type="line"/>
      <point x="355" y="127" type="line"/>
      <point x="372" y="56"/>
      <point x="502" y="-31"/>
      <point x="599" y="-31" type="qcurve" smooth="yes"/>
      <point x="694" y="-31"/>
      <point x="862" y="29"/>
      <point x="998" y="141"/>
      <point x="1094" y="299"/>
      <point x="1117" y="397" type="qcurve" smooth="yes"/>
      <point x="1152" y="549"/>
      <point x="1080" y="745"/>
      <point x="981" y="782" type="qcurve"/>
      <point x="1069" y="827"/>
      <point x="1175" y="972"/>
      <point x="1202" y="1090" type="qcurve" smooth="yes"/>
      <point x="1224" y="1185"/>
      <point x="1195" y="1340"/>
      <point x="1105" y="1450"/>
      <point x="956" y="1509"/>
    </contour>
  </outline>
</glyph>
<glyph name="delta" format="2">
  <advance width="1134"/>
  <unicode hex="03B4"/>
  <outline>
    <contour>
      <point x="686" y="864" type="line"/>
      <point x="694" y="860" type="line"/>
      <point x="773" y="812"/>
      <point x="846" y="622"/>
      <point x="811" y="471" type="qcurve" smooth="yes"/>
      <point x="802" y="430"/>
      <point x="753" y="323"/>
      <point x="677" y="227"/>
      <point x="580" y="162"/>
      <point x="522" y="162" type="qcurve" smooth="yes"/>
      <point x="508" y="162" type="line" smooth="yes"/>
      <point x="454" y="162"/>
      <point x="381" y="213"/>
      <point x="342" y="300"/>
      <point x="338" y="417"/>
      <point x="353" y="483" type="qcurve" smooth="yes"/>
      <point x="364" y="529"/>
      <point x="412" y="659"/>
      <point x="489" y="779"/>
      <point x="596" y="864"/>
      <point x="666" y="864" type="qcurve" smooth="yes"/>
    </contour>
    <contour>
      <point x="333" y="1176" type="line"/>
      <point x="584" y="983" type="line"/>
      <point x="598" y="1008" type="line"/>
      <point x="486" y="978"/>
      <point x="303" y="880"/>
      <point x="165" y="747"/>
      <point x="72" y="583"/>
      <point x="50" y="487" type="qcurve" smooth="yes"/>
      <point x="26" y="384"/>
      <point x="40" y="197"/>
      <point x="134" y="55"/>
      <point x="319" y="-29"/>
      <point x="468" y="-29" type="qcurve" smooth="yes"/>
      <point x="577" y="-29"/>
      <point x="780" y="23"/>
      <point x="950" y="145"/>
      <point x="1078" y="346"/>
      <point x="1113" y="496" type="qcurve" smooth="yes"/>
      <point x="1150" y="658"/>
      <point x="1068" y="908"/>
      <point x="959" y="1004" type="qcurve" smooth="yes"/>
      <point x="642" y="1276" type="line"/>
      <point x="634" y="1266" type="line"/>
      <point x="1168" y="1266" type="line"/>
      <point x="1218" y="1481" type="line"/>
      <point x="403" y="1481" type="line"/>
    </contour>
  </outline>
</glyph>
<glyph name="epsilon" format="2">
  <advance width="1172"/>
  <unicode hex="03B5"/>
  <anchor x="583" y="1277" name="tonos.top"/>
  <outline>
    <contour>
      <point x="57.7403" y="270.303" type="curve" smooth="yes"/>
      <point x="57.7403" y="43.4024"/>
      <point x="359.011" y="-20.4107"/>
      <point x="535.245" y="-20.4107" type="curve" smooth="yes"/>
      <point x="770.16" y="-20.4107"/>
      <point x="917.043" y="72.0621"/>
      <point x="987" y="264" type="curve"/>
      <point x="726" y="299" type="line"/>
      <point x="688.416" y="208.498"/>
      <point x="641.993" y="176.711"/>
      <point x="547.403" y="176.711" type="curve" smooth="yes"/>
      <point x="473.539" y="176.711"/>
      <point x="404.261" y="194.024"/>
      <point x="404.261" y="282.568" type="curve" smooth="yes"/>
      <point x="404.261" y="408.557"/>
      <point x="503.445" y="484.39"/>
      <point x="603.795" y="484.399" type="curve" smooth="yes"/>
      <point x="688.667" y="484.406" type="line"/>
      <point x="721.827" y="628.037" type="line"/>
      <point x="637.831" y="627.646" type="line" smooth="yes"/>
      <point x="582.829" y="627.39"/>
      <point x="542.808" y="676.832"/>
      <point x="542.808" y="745.911" type="curve" smooth="yes"/>
      <point x="542.808" y="803.915"/>
      <point x="585.843" y="880.563"/>
      <point x="652.486" y="880.563" type="curve" smooth="yes"/>
      <point x="731.696" y="880.563"/>
      <point x="807.077" y="845.371"/>
      <point x="797" y="762" type="curve"/>
      <point x="1054" y="785" type="line"/>
      <point x="1054" y="1014.04"/>
      <point x="803.267" y="1083.59"/>
      <point x="612.234" y="1083.59" type="curve" smooth="yes"/>
      <point x="415.377" y="1083.59"/>
      <point x="218.225" y="973.048"/>
      <point x="218.225" y="755.206" type="curve" smooth="yes"/>
      <point x="218.225" y="669.795"/>
      <point x="263.288" y="612.003"/>
      <point x="341.176" y="580.778" type="curve"/>
      <point x="348.392" y="594.187" type="line"/>
      <point x="174.563" y="572.186"/>
      <point x="57.7403" y="451.008"/>
    </contour>
  </outline>
</glyph>
<glyph name="mu" format="2">
  <advance width="1366"/>
  <unicode hex="03BC"/>
  <outline>
    <contour>
      <point x="-77" y="-428" type="line"/>
      <point x="237" y="-428" type="line"/>
      <point x="582" y="1064" type="line"/>
      <point x="268" y="1064" type="line"/>
    </contour>
    <contour>
      <point x="1012" y="-30" type="qcurve" smooth="yes"/>
      <point x="1037" y="-30"/>
      <point x="1096" y="-21"/>
      <point x="1155" y="-6"/>
      <point x="1210" y="17"/>
      <point x="1231" y="30" type="qcurve"/>
      <point x="1276" y="223" type="line"/>
      <point x="1249" y="203"/>
      <point x="1190" y="177"/>
      <point x="1156" y="177" type="qcurve" smooth="yes"/>
      <point x="1126" y="177"/>
      <point x="1084" y="186"/>
      <point x="1064" y="219"/>
      <point x="1064" y="282"/>
      <point x="1077" y="336" type="qcurve" smooth="yes"/>
      <point x="1245" y="1064" type="line"/>
      <point x="934" y="1064" type="line"/>
      <point x="782" y="404" type="line" smooth="yes"/>
      <point x="731" y="184"/>
      <point x="844" y="-30"/>
    </contour>
    <contour>
      <point x="433" y="419" type="qcurve"/>
      <point x="391" y="419" type="line"/>
      <point x="315" y="89" type="line"/>
      <point x="349" y="57" type="line" smooth="yes"/>
      <point x="394" y="14"/>
      <point x="472" y="-28"/>
      <point x="504" y="-28" type="qcurve" smooth="yes"/>
      <point x="577" y="-28"/>
      <point x="704" y="72"/>
      <point x="766" y="175" type="qcurve"/>
      <point x="817" y="468" type="line"/>
      <point x="798" y="475" type="line"/>
      <point x="784" y="413"/>
      <point x="743" y="307"/>
      <point x="682" y="230"/>
      <point x="599" y="187"/>
      <point x="540" y="187" type="qcurve" smooth="yes"/>
      <point x="486" y="187"/>
      <point x="429" y="215"/>
      <point x="409" y="273"/>
      <point x="419" y="360"/>
    </contour>
  </outline>
</glyph>
<glyph name="pi" format="2">
  <advance width="1265"/>
  <unicode hex="03C0"/>
  <outline>
    <contour>
      <point x="61.4733" y="843" type="line"/>
      <point x="1257.47" y="843" type="line"/>
      <point x="1308.5" y="1064" type="line"/>
      <point x="112.495" y="1064" type="line"/>
    </contour>
    <contour>
      <point x="217.861" y="875" type="line"/>
      <point x="15.8514" y="0" type="line"/>
      <point x="338.851" y="0" type="line"/>
      <point x="540.861" y="875" type="line"/>
    </contour>
    <contour>
      <point x="787.861" y="875" type="line"/>
      <point x="623.714" y="164" type="line" smooth="yes"/>
      <point x="619.969" y="147.78"/>
      <point x="617.786" y="131.149"/>
      <point x="617.786" y="114.489" type="curve" smooth="yes"/>
      <point x="617.786" y="25.3288"/>
      <point x="677.95" y="-17"/>
      <point x="762.927" y="-17" type="curve" smooth="yes"/>
      <point x="862.235" y="-17"/>
      <point x="961.641" y="-12.8016"/>
      <point x="1060.39" y="-2" type="curve"/>
      <point x="1106.56" y="198" type="line"/>
      <point x="1081.15" y="193.115"/>
      <point x="1055.04" y="187"/>
      <point x="1029.02" y="187" type="curve" smooth="yes"/>
      <point x="993.758" y="187"/>
      <point x="965.737" y="198.362"/>
      <point x="965.737" y="237.68" type="curve" smooth="yes"/>
      <point x="965.737" y="247.405"/>
      <point x="967.778" y="268.37"/>
      <point x="974.351" y="296.435" type="curve" smooth="yes"/>
      <point x="1109.86" y="875" type="line"/>
    </contour>
  </outline>
</glyph>
<glyph name="rho" format="2">
  <advance width="1237"/>
  <unicode hex="03C1"/>
  <outline>
    <contour>
      <point x="-68" y="-426" type="line"/>
      <point x="240" y="-426" type="line"/>
      <point x="358" y="87" type="line"/>
      <point x="383" y="50"/>
      <point x="445" y="4"/>
      <point x="516" y="-22"/>
      <point x="592" y="-30"/>
      <point x="632" y="-30" type="qcurve" smooth="yes"/>
      <point x="747" y="-30"/>
      <point x="936" y="60"/>
      <point x="1085" y="219"/>
      <point x="1189" y="435"/>
      <point x="1218" y="560" type="qcurve" smooth="yes"/>
      <point x="1242" y="664"/>
      <point x="1228" y="857"/>
      <point x="1146" y="1004"/>
      <point x="993" y="1092"/>
      <point x="877" y="1092" type="qcurve" smooth="yes"/>
      <point x="709" y="1092"/>
      <point x="462" y="1005"/>
      <point x="282" y="833"/>
      <point x="163" y="575"/>
      <point x="123" y="404" type="qcurve" smooth="yes"/>
    </contour>
    <contour>
      <point x="489" y="615" type="line" smooth="yes"/>
      <point x="504" y="678"/>
      <point x="559" y="779"/>
      <point x="632" y="849"/>
      <point x="717" y="887"/>
      <point x="760" y="887" type="qcurve" smooth="yes"/>
      <point x="827" y="887"/>
      <point x="899" y="822"/>
      <point x="927" y="723"/>
      <point x="920" y="605"/>
      <point x="908" y="551" type="qcurve"/>
      <point x="895" y="509" type="line" smooth="yes"/>
      <point x="877" y="449"/>
      <point x="823" y="326"/>
      <point x="746" y="225"/>
      <point x="647" y="162"/>
      <point x="586" y="162" type="qcurve" smooth="yes"/>
      <point x="540" y="162"/>
      <point x="474" y="199"/>
      <point x="437" y="265"/>
      <point x="429" y="355"/>
      <point x="441" y="409" type="qcurve" smooth="yes"/>
    </contour>
  </outline>
</glyph>
<glyph name="chi" format="2">
  <advance width="1133"/>
  <unicode hex="03C7"/>
  <outline>
    <contour>
      <point x="677" y="-415" type="curve" smooth="yes"/>
      <point x="733.707" y="-415"/>
      <point x="929.932" y="-410.413"/>
      <point x="974" y="-396" type="curve"/>
      <point x="1020" y="-200" type="line"/>
      <point x="1002.21" y="-203.943"/>
      <point x="980.136" y="-202.074"/>
      <point x="961.926" y="-202.074" type="curve" smooth="yes"/>
      <point x="916.721" y="-202.074"/>
      <point x="814.802" y="-207.215"/>
      <point x="803" y="-149" type="curve" smooth="yes"/>
      <point x="595" y="877" type="line" smooth="yes"/>
      <point x="565.974" y="1020.17"/>
      <point x="492.543" y="1092"/>
      <point x="350" y="1092" type="curve" smooth="yes"/>
      <point x="276.881" y="1092"/>
      <point x="185.689" y="1084.71"/>
      <point x="115" y="1066" type="curve"/>
      <point x="67" y="870" type="line"/>
      <point x="112.846" y="875.818"/>
      <point x="157.802" y="877"/>
      <point x="204" y="877" type="curve" smooth="yes"/>
      <point x="245.461" y="877"/>
      <point x="311.167" y="829.826"/>
      <point x="319" y="792" type="curve" smooth="yes"/>
      <point x="553" y="-338" type="line" smooth="yes"/>
      <point x="565.733" y="-399.486"/>
      <point x="624.657" y="-415"/>
    </contour>
    <contour>
      <point x="668.457" y="346" type="line"/>
      <point x="1226" y="1066" type="line"/>
      <point x="876" y="1066" type="line"/>
      <point x="581.457" y="665" type="line"/>
    </contour>
    <contour>
      <point x="528" y="613" type="line"/>
      <point x="-257" y="-436" type="line"/>
      <point x="111" y="-436" type="line"/>
      <point x="606" y="260" type="line"/>
    </contour>
  </outline>
</glyph>
<glyph name="Dzhecyr" format="2">
  <advance width="1584"/>
  <unicode hex="040F"/>
  <outline>
    <component base="I"/>
    <component base="I" xOffset="941"/>
    <contour>
      <point x="1044" y="0" type="line"/>
      <point x="1099" y="239" type="line"/>
      <point x="373" y="239" type="line"/>
      <point x="313" y="0" type="line"/>
    </contour>
    <contour>
      <point x="723" y="-314" type="line"/>
      <point x="804" y="31" type="line"/>
      <point x="544" y="31" type="line"/>
      <point x="463" y="-314" type="line"/>
    </contour>
  </outline>
</glyph>
<glyph name="Yucyr" format="2">
  <advance width="2003"/>
  <unicode hex="042E"/>
  <outline>
    <component base="I"/>
    <contour>
      <point x="1112.08" y="-20" type="curve" smooth="yes"/>
      <point x="1631.71" y="-20"/>
      <point x="2002.46" y="397"/>
      <point x="2002.46" y="918" type="curve" smooth="yes"/>
      <point x="2002.46" y="1269"/>
      <point x="1787.5" y="1468"/>
      <point x="1444.37" y="1468" type="curve" smooth="yes"/>
      <point x="923.756" y="1468"/>
      <point x="592.455" y="1048"/>
      <point x="592.455" y="519" type="curve" smooth="yes"/>
      <point x="592.455" y="175"/>
      <point x="781.77" y="-20"/>
    </contour>
    <contour>
      <point x="1162.84" y="236" type="curve" smooth="yes"/>
      <point x="969.672" y="236"/>
      <point x="898.455" y="327"/>
      <point x="898.455" y="530" type="curve" smooth="yes"/>
      <point x="898.455" y="841"/>
      <point x="1053.57" y="1211"/>
      <point x="1394.05" y="1211" type="curve" smooth="yes"/>
      <point x="1589.17" y="1211"/>
      <point x="1697.45" y="1121"/>
      <point x="1697.45" y="915" type="curve" smooth="yes"/>
      <point x="1697.45" y="603"/>
      <point x="1501.36" y="236"/>
    </contour>
    <contour>
      <point x="687.104" y="843.076" type="line"/>
      <point x="491.52" y="842.691" type="line"/>
      <point x="437.248" y="604.106" type="line"/>
      <point x="634.88" y="604.454" type="line"/>
    </contour>
  </outline>
</glyph>
<glyph name="gecyr" format="2">
  <advance width="932"/>
  <unicode hex="0433"/>
  <anchor x="595" y="1192" name="top"/>
  <outline>
    <contour>
      <point x="-3.17931" y="265.869" type="curve" smooth="yes"/>
      <point x="-3.18611" y="84.8187"/>
      <point x="146.907" y="-20"/>
      <point x="364.79" y="-20" type="curve" smooth="yes"/>
      <point x="547.384" y="-20"/>
      <point x="692.139" y="30.4697"/>
      <point x="800.792" y="128.751" type="curve"/>
      <point x="633.219" y="333.857" type="line"/>
      <point x="555.139" y="262.039"/>
      <point x="495.289" y="219.884"/>
      <point x="387.652" y="220" type="curve" smooth="yes"/>
      <point x="339.43" y="220.052"/>
      <point x="282.821" y="245.108"/>
      <point x="282.821" y="301.518" type="curve" smooth="yes"/>
      <point x="282.821" y="467.84"/>
      <point x="900.672" y="398.434"/>
      <point x="900.672" y="806.425" type="curve" smooth="yes"/>
      <point x="900.672" y="969.836"/>
      <point x="789.526" y="1084.07"/>
      <point x="549.672" y="1084" type="curve" smooth="yes"/>
      <point x="407.067" y="1083.96"/>
      <point x="257.024" y="1031.15"/>
      <point x="144.774" y="945.6" type="curve"/>
      <point x="297.377" y="765.414" type="line"/>
      <point x="359.435" y="815.813"/>
      <point x="448.654" y="851"/>
      <point x="515.213" y="851" type="curve" smooth="yes"/>
      <point x="574.024" y="851"/>
      <point x="614.672" y="832.508"/>
      <point x="614.672" y="781.72" type="curve" smooth="yes"/>
      <point x="614.672" y="593.694"/>
      <point x="-3.16304" y="702.745"/>
    </contour>
  </outline>
  <guideline angle="129.359" x="802.27" y="147"/>
  <guideline angle="129.359" x="900.472" y="147"/>
  <guideline angle="90" name="vertical" x="595" y="0"/>
</glyph>
<glyph name="hardcyr" format="2">
  <advance width="1311"/>
  <unicode hex="044A"/>
  <outline>
    <contour>
      <point x="515.338" y="1064" type="line"/>
      <point x="125.308" y="1064" type="line"/>
      <point x="83.3077" y="878" type="line"/>
      <point x="476.313" y="878" type="line"/>
    </contour>
    <contour>
      <point x="655.664" y="-20.48" type="curve" smooth="yes"/>
      <point x="988.919" y="-20.48"/>
      <point x="1258.8" y="195.822"/>
      <point x="1258.8" y="539.648" type="curve" smooth="yes"/>
      <point x="1258.8" y="737.279"/>
      <point x="1143.09" y="875.519"/>
      <point x="866.608" y="875.519" type="curve" smooth="yes"/>
      <point x="771.376" y="875.519"/>
      <point x="680.24" y="847.872"/>
      <point x="592.176" y="791.552" type="curve"/>
      <point x="667.736" y="1063.94" type="line"/>
      <point x="408.192" y="1063.94" type="line"/>
      <point x="271.192" y="487.424" type="line" smooth="yes"/>
      <point x="258.096" y="432.314"/>
      <point x="252.76" y="379.904"/>
      <point x="252.76" y="329.728" type="curve" smooth="yes"/>
      <point x="252.76" y="120.832"/>
      <point x="375.478" y="-20.48"/>
    </contour>
    <contour>
      <point x="679.216" y="219.56" type="curve" smooth="yes"/>
      <point x="584.926" y="219.56"/>
      <point x="533.064" y="269.221"/>
      <point x="533.064" y="347.137" type="curve" smooth="yes"/>
      <point x="533.064" y="508.34"/>
      <point x="640.233" y="635.459"/>
      <point x="812.336" y="635.459" type="curve" smooth="yes"/>
      <point x="908.344" y="635.459"/>
      <point x="977.44" y="590.119"/>
      <point x="977.44" y="498.69" type="curve" smooth="yes"/>
      <point x="977.44" y="341.914"/>
      <point x="851.894" y="219.56"/>
    </contour>
  </outline>
</glyph>
<glyph name="yatcyr" format="2">
  <advance width="1097"/>
  <unicode hex="0463"/>
  <outline>
    <contour>
      <point x="32.768" y="0" type="line"/>
      <point x="452.728" y="0" type="line" smooth="yes"/>
      <point x="760.225" y="0"/>
      <point x="1028.98" y="125.856"/>
      <point x="1028.98" y="462.848" type="curve" smooth="yes"/>
      <point x="1028.98" y="631.808"/>
      <point x="895.096" y="745.92"/>
      <point x="611.448" y="745.92" type="curve" smooth="yes"/>
      <point x="493.992" y="745.92" type="line"/>
      <point x="668.072" y="1447.86" type="line"/>
      <point x="378.88" y="1447.86" type="line"/>
    </contour>
    <contour>
      <point x="492.664" y="240.064" type="curve" smooth="yes"/>
      <point x="372.136" y="240.064" type="line"/>
      <point x="441.768" y="505.856" type="line"/>
      <point x="575.608" y="505.856" type="line" smooth="yes"/>
      <point x="682.104" y="505.856"/>
      <point x="742.52" y="485.376"/>
      <point x="742.52" y="423.936" type="curve" smooth="yes"/>
      <point x="742.52" y="285.474"/>
      <point x="615.998" y="240.064"/>
    </contour>
    <contour>
      <point x="149.576" y="1305.01" type="line"/>
      <point x="105.64" y="1122.07" type="line"/>
      <point x="887.376" y="1122.07" type="line"/>
      <point x="929.264" y="1305.01" type="line"/>
    </contour>
  </outline>
  <guideline angle="256.608" x="153" y="1323"/>
  <guideline angle="77.2547" x="894" y="1155"/>
</glyph>
<glyph name="geupcyr" format="2">
  <advance width="855"/>
  <unicode hex="0491"/>
  <outline>
    <component base="dotlessi"/>
    <contour>
      <point x="451.622" y="827.568" type="line"/>
      <point x="917.379" y="827.568" type="line"/>
      <point x="741.089" y="1063.94" type="line"/>
      <point x="505.831" y="1063.94" type="line"/>
    </contour>
    <contour>
      <point x="917.379" y="827.568" type="line"/>
      <point x="1034.58" y="1338.37" type="line"/>
      <point x="749.384" y="1338.37" type="line"/>
      <point x="676.365" y="1033.58" type="line"/>
    </contour>
  </outline>
  <guideline angle="77.0236" x="929" y="878"/>
  <guideline angle="256.983" x="506" y="1064"/>
</glyph>
<glyph name="schwacyr" format="2">
  <advance width="1113"/>
  <unicode hex="04D9"/>
  <outline>
    <contour>
      <point x="435.951" y="-20.312" type="curve" smooth="yes"/>
      <point x="820.279" y="-20.1302"/>
      <point x="1114.47" y="277.266"/>
      <point x="1114.47" y="665.6" type="curve" smooth="yes"/>
      <point x="1114.47" y="910.642"/>
      <point x="925.751" y="1084.22"/>
      <point x="677.583" y="1084.22" type="curve" smooth="yes"/>
      <point x="484.801" y="1084.22"/>
      <point x="362.762" y="1049.86"/>
      <point x="221.582" y="942.957" type="curve"/>
      <point x="410.505" y="731.801" type="line"/>
      <point x="497.698" y="817.633"/>
      <point x="553.78" y="843.436"/>
      <point x="653.141" y="843.436" type="curve" smooth="yes"/>
      <point x="752.886" y="843.436"/>
      <point x="835.432" y="770.902"/>
      <point x="835.432" y="651.998" type="curve" smooth="yes"/>
      <point x="835.432" y="640.911"/>
      <point x="835.432" y="634.216"/>
      <point x="833.384" y="624.64" type="curve"/>
      <point x="39.1034" y="624.64" type="line"/>
      <point x="8.03682" y="545.034"/>
      <point x="0.64028" y="483.698"/>
      <point x="0.63268" y="398.28" type="curve" smooth="yes"/>
      <point x="0.61048" y="149.974"/>
      <point x="177.828" y="-20.4341"/>
    </contour>
    <contour>
      <point x="472.939" y="220.699" type="curve" smooth="yes"/>
      <point x="349.947" y="220.699"/>
      <point x="279.767" y="287.027"/>
      <point x="279.767" y="403.268" type="curve" smooth="yes"/>
      <point x="279.767" y="418.552"/>
      <point x="280.406" y="429.352"/>
      <point x="282.839" y="444.416" type="curve"/>
      <point x="787.304" y="444.416" type="line"/>
      <point x="735.101" y="322.145"/>
      <point x="627.901" y="220.699"/>
    </contour>
  </outline>
</glyph>
<glyph name="quoteright" format="2">
  <advance width="590"/>
  <unicode hex="2019"/>
  <outline>
    <contour>
      <point x="362.496" y="854.016" type="line"/>
      <point x="766.976" y="1446.91" type="line"/>
      <point x="454.656" y="1446.91" type="line"/>
      <point x="169.984" y="854.016" type="line"/>
    </contour>
  </outline>
</glyph>
<glyph name="dagger" format="2">
  <advance width="784"/>
  <unicode hex="2020"/>
  <outline>
    <contour>
      <point x="351.232" y="-209.92" type="line"/>
      <point x="586.752" y="817.152" type="line"/>
      <point x="815.104" y="817.152" type="line"/>
      <point x="872.448" y="1065.98" type="line"/>
      <point x="646.144" y="1065.98" type="line"/>
      <point x="733.184" y="1446.91" type="line"/>
      <point x="483.328" y="1446.91" type="line"/>
      <point x="395.264" y="1065.98" type="line"/>
      <point x="168.96" y="1065.98" type="line"/>
      <point x="111.616" y="817.152" type="line"/>
      <point x="337.92" y="817.152" type="line"/>
      <point x="102.4" y="-209.92" type="line"/>
    </contour>
  </outline>
</glyph>
<glyph name="won" format="2">
  <advance width="1229"/>
  <unicode hex="20A9"/>
  <outline>
    <contour>
      <point x="1157.38" y="652" type="line"/>
      <point x="1196.86" y="823" type="line"/>
      <point x="80.8559" y="823" type="line"/>
      <point x="41.3774" y="652" type="line"/>
    </contour>
    <contour>
      <point x="778.851" y="0" type="line"/>
      <point x="1356.15" y="1448" type="line"/>
      <point x="1164.15" y="1448" type="line"/>
      <point x="775.354" y="418" type="line"/>
      <point x="857.149" y="1448" type="line"/>
      <point x="708.149" y="1448" type="line"/>
      <point x="314.354" y="418" type="line"/>
      <point x="400.149" y="1448" type="line"/>
      <point x="208.149" y="1448" type="line"/>
      <point x="117.851" y="0" type="line"/>
      <point x="293.851" y="0" type="line"/>
      <point x="683.721" y="1013" type="line"/>
      <point x="601.851" y="0" type="line"/>
    </contour>
  </outline>
</glyph>
<glyph name="ruble" format="2">
  <advance width="1229"/>
  <unicode hex="20BD"/>
  <outline>
    <component base="P" xOffset="-32"/>
    <contour>
      <point x="-33.696" y="470.016" type="line"/>
      <point x="-79.776" y="268.288" type="line"/>
      <point x="702.56" y="268.288" type="line"/>
      <point x="748.64" y="470.016" type="line"/>
    </contour>
    <contour>
      <point x="265.312" y="842.752" type="line"/>
      <point x="52.32" y="842.752" type="line"/>
      <point x="2.144" y="620.544" type="line"/>
      <point x="215.136" y="620.544" type="line"/>
    </contour>
  </outline>
</glyph>
<glyph name="numero" format="2">
  <advance width="2535"/>
  <unicode hex="2116"/>
  <outline>
    <contour>
      <point x="1184.77" y="0" type="line"/>
      <point x="1518.59" y="1447.91" type="line"/>
      <point x="1268.74" y="1447.91" type="line"/>
      <point x="1032.19" y="434.176" type="line"/>
      <point x="658.432" y="1447.91" type="line"/>
      <point x="402.432" y="1447.91" type="line"/>
      <point x="69.632" y="0" type="line"/>
      <point x="318.464" y="0" type="line"/>
      <point x="556.032" y="1014.78" type="line"/>
      <point x="926.72" y="0" type="line"/>
    </contour>
    <contour>
      <point x="1867.84" y="339.968" type="curve" smooth="yes"/>
      <point x="2150.59" y="339.986"/>
      <point x="2397.96" y="582.341"/>
      <point x="2396.22" y="868.352" type="curve" smooth="yes"/>
      <point x="2395.04" y="1062.91"/>
      <point x="2271.3" y="1209.5"/>
      <point x="2046.02" y="1209.34" type="curve" smooth="yes"/>
      <point x="1763.86" y="1209.15"/>
      <point x="1515.58" y="965.68"/>
      <point x="1515.58" y="680.96" type="curve" smooth="yes"/>
      <point x="1515.58" y="488.448"/>
      <point x="1639.49" y="339.954"/>
    </contour>
    <contour>
      <point x="1886.27" y="516.096" type="curve" smooth="yes"/>
      <point x="1771.58" y="516.096"/>
      <point x="1724.65" y="579.584"/>
      <point x="1724.48" y="673.792" type="curve" smooth="yes"/>
      <point x="1724.17" y="839.618"/>
      <point x="1842.63" y="1031.17"/>
      <point x="2026.56" y="1031.17" type="curve" smooth="yes"/>
      <point x="2141.25" y="1031.17"/>
      <point x="2188.48" y="967.68"/>
      <point x="2188.35" y="873.472" type="curve" smooth="yes"/>
      <point x="2188.13" y="703.239"/>
      <point x="2070.92" y="516.096"/>
    </contour>
    <contour>
      <point x="2293.7" y="0" type="line"/>
      <point x="2293.7" y="188.416" type="line"/>
      <point x="1446.85" y="188.416" type="line"/>
      <point x="1446.85" y="0" type="line"/>
    </contour>
  </outline>
</glyph>
<glyph name="fi" format="2">
  <advance width="1150"/>
  <unicode hex="FB01"/>
  <outline>
    <contour>
      <point x="902.144" y="-1.024" type="line"/>
      <point x="1148.93" y="1063.62" type="line"/>
      <point x="574.464" y="1063.62" type="line"/>
      <point x="602.112" y="1158.85"/>
      <point x="676.864" y="1212.39"/>
      <point x="811.008" y="1212.39" type="curve" smooth="yes"/>
      <point x="905.216" y="1212.39"/>
      <point x="943.104" y="1198.06"/>
      <point x="999.424" y="1143.78" type="curve"/>
      <point x="1189.89" y="1322.98" type="line"/>
      <point x="1069.6" y="1435.75"/>
      <point x="1006.36" y="1468.39"/>
      <point x="839.68" y="1468.39" type="curve" smooth="yes"/>
      <point x="545.792" y="1468.39"/>
      <point x="357.376" y="1314.5"/>
      <point x="292.864" y="1063.62" type="curve"/>
      <point x="125.952" y="1063.62" type="line"/>
      <point x="69.632" y="827.584" type="line"/>
      <point x="232.448" y="827.584" type="line"/>
      <point x="41.984" y="-1.0239" type="line"/>
      <point x="328.704" y="-1.0239" type="line"/>
      <point x="518.144" y="827.584" type="line"/>
      <point x="811.008" y="827.584" type="line"/>
      <point x="620.544" y="-1.0239" type="line"/>
    </contour>
  </outline>
</glyph>
<glyph name="becyr.loclSRB" format="2">
  <advance width="1104"/>
  <outline>
    <contour>
      <point x="442.497" y="-16.384" type="curve" smooth="yes"/>
      <point x="805.144" y="-16.384"/>
      <point x="1057.77" y="218.801"/>
      <point x="1057.77" y="569.688" type="curve" smooth="yes"/>
      <point x="1057.77" y="871.174"/>
      <point x="621.293" y="1087"/>
      <point x="621.293" y="1180.2" type="curve" smooth="yes"/>
      <point x="621.293" y="1231.03"/>
      <point x="646.929" y="1254.4"/>
      <point x="700.416" y="1254.4" type="curve" smooth="yes"/>
      <point x="780.604" y="1254.4"/>
      <point x="880.669" y="1209.42"/>
      <point x="931.84" y="1146.88" type="curve"/>
      <point x="1051.65" y="1369.09" type="line"/>
      <point x="921.6" y="1438.72"/>
      <point x="793.6" y="1468.42"/>
      <point x="691.2" y="1468.42" type="curve" smooth="yes"/>
      <point x="528.35" y="1468.42"/>
      <point x="340.987" y="1394"/>
      <point x="340.992" y="1200.1" type="curve" smooth="yes"/>
      <point x="340.994" y="1089.79"/>
      <point x="403.727" y="1015.76"/>
      <point x="473.467" y="952.093" type="curve" smooth="yes"/>
      <point x="613.179" y="824.537" type="line" smooth="yes"/>
      <point x="688.213" y="756.031"/>
      <point x="789.39" y="634.319"/>
      <point x="789.39" y="508.172" type="curve" smooth="yes"/>
      <point x="789.39" y="332.683"/>
      <point x="642.807" y="194.56"/>
      <point x="472.383" y="194.56" type="curve" smooth="yes"/>
      <point x="366.723" y="194.56"/>
      <point x="299.958" y="261.189"/>
      <point x="299.958" y="386.224" type="curve" smooth="yes"/>
      <point x="299.958" y="609.152"/>
      <point x="527.918" y="819.534"/>
      <point x="748.774" y="849.684" type="curve"/>
      <point x="536.897" y="1000.99" type="line"/>
      <point x="268.904" y="906.082"/>
      <point x="31.5514" y="692.487"/>
      <point x="31.744" y="388.096" type="curve" smooth="yes"/>
      <point x="31.899" y="121.775"/>
      <point x="216.916" y="-16.384"/>
    </contour>
  </outline>
</glyph>
<glyph name="circumflexcomb_acutecomb" format="2">
  <anchor x="-524" y="1192" name="_top"/>
  <outline>
    <component base="circumflexcomb" xOffset="-210"/>
    <contour>
      <point x="-53.248" y="1409.94" type="line"/>
      <point x="258.401" y="1642" type="line"/>
      <point x="-33.4386" y="1642" type="line"/>
      <point x="-256" y="1409.94" type="line"/>
    </contour>
  </outline>
  <guideline angle="0" x="0" y="1642"/>
  <guideline angle="226.207" x="46" y="1725"/>
  <guideline angle="0" x="0" y="1410"/>
</glyph>
<glyph name="dieresiscomb_acutecomb" format="2">
  <anchor x="-306" y="1192" name="_top"/>
  <outline>
    <contour>
      <point x="-391" y="1192" type="line"/>
      <point x="-336" y="1433" type="line"/>
      <point x="-558" y="1433" type="line"/>
      <point x="-612" y="1192" type="line"/>
    </contour>
    <contour>
      <point x="-23" y="1192" type="line"/>
      <point x="32" y="1433" type="line"/>
      <point x="-190" y="1433" type="line"/>
      <point x="-244" y="1192" type="line"/>
    </contour>
    <contour>
      <point x="-133.384" y="1530.94" type="line"/>
      <point x="257.784" y="1846.33" type="line"/>
      <point x="-34.056" y="1846.33" type="line"/>
      <point x="-336.136" y="1530.94" type="line"/>
    </contour>
  </outline>
</glyph>
<glyph name="f_f" format="2">
  <advance width="1337"/>
  <outline>
    <contour>
      <point x="49.152" y="-0.024" type="line"/>
      <point x="340.992" y="-0.024" type="line"/>
      <point x="530.432" y="827.584" type="line"/>
      <point x="873.472" y="827.584" type="line"/>
      <point x="684.032" y="-0.024" type="line"/>
      <point x="982.016" y="-0.024" type="line"/>
      <point x="1171.46" y="827.584" type="line"/>
      <point x="1415.17" y="827.584" type="line"/>
      <point x="1471.49" y="1064.18" type="line"/>
      <point x="1228.8" y="1064.18" type="line"/>
      <point x="1237.11" y="1104.03" type="line" smooth="yes"/>
      <point x="1251.7" y="1174.06"/>
      <point x="1283.8" y="1225.7"/>
      <point x="1352.7" y="1225.7" type="curve" smooth="yes"/>
      <point x="1382.4" y="1225.7"/>
      <point x="1411.07" y="1211.37"/>
      <point x="1435.65" y="1198.06" type="curve"/>
      <point x="1581.06" y="1413.1" type="line"/>
      <point x="1518.59" y="1444.84"/>
      <point x="1445.89" y="1468.39"/>
      <point x="1373.18" y="1468.39" type="curve" smooth="yes"/>
      <point x="1262.59" y="1468.39"/>
      <point x="1174.53" y="1443.82"/>
      <point x="1110.02" y="1394.66" type="curve"/>
      <point x="1041.41" y="1446.89"/>
      <point x="925.696" y="1468.39"/>
      <point x="840.704" y="1468.39" type="curve" smooth="yes"/>
      <point x="591.872" y="1468.39"/>
      <point x="376.082" y="1379.29"/>
      <point x="320.512" y="1155.07" type="curve" smooth="yes"/>
      <point x="297.984" y="1064.18" type="line"/>
      <point x="126.976" y="1064.18" type="line"/>
      <point x="70.656" y="827.584" type="line"/>
      <point x="238.592" y="827.584" type="line"/>
    </contour>
    <contour>
      <point x="587.776" y="1064.18" type="line"/>
      <point x="596.992" y="1104.9" type="line" smooth="yes"/>
      <point x="615.077" y="1184.8"/>
      <point x="706.165" y="1211.87"/>
      <point x="805.493" y="1211.87" type="curve" smooth="yes"/>
      <point x="861.813" y="1211.87"/>
      <point x="922.624" y="1203.18"/>
      <point x="967.68" y="1179.62" type="curve"/>
      <point x="933.888" y="1064.18" type="line"/>
    </contour>
  </outline>
</glyph>
<glyph name="five.pnum" format="2">
  <advance width="1281"/>
  <outline>
    <contour>
      <point x="557.008" y="-20.48" type="curve" smooth="yes"/>
      <point x="893.904" y="-20.48"/>
      <point x="1183.7" y="226.304"/>
      <point x="1183.7" y="620.544" type="curve" smooth="yes"/>
      <point x="1183.7" y="850.944"/>
      <point x="1015.76" y="1009.66"/>
      <point x="771.024" y="1009.66" type="curve" smooth="yes"/>
      <point x="707.536" y="1009.66"/>
      <point x="605.136" y="993.28"/>
      <point x="535.504" y="955.392" type="curve"/>
      <point x="637.904" y="1177.6" type="line"/>
      <point x="1240.02" y="1177.6" type="line"/>
      <point x="1301.46" y="1446.91" type="line"/>
      <point x="465.872" y="1446.91" type="line"/>
      <point x="145.36" y="675.84" type="line"/>
      <point x="399.312" y="607.232" type="line"/>
      <point x="467.92" y="687.104"/>
      <point x="580.56" y="744.448"/>
      <point x="669.648" y="744.448" type="curve" smooth="yes"/>
      <point x="791.504" y="744.448"/>
      <point x="866.256" y="680.96"/>
      <point x="866.256" y="553.984" type="curve" smooth="yes"/>
      <point x="866.256" y="393.216"/>
      <point x="752.592" y="244.736"/>
      <point x="551.888" y="244.736" type="curve" smooth="yes"/>
      <point x="423.888" y="244.736"/>
      <point x="331.728" y="325.632"/>
      <point x="331.728" y="492.544" type="curve"/>
      <point x="53.2" y="443.392" type="line"/>
      <point x="53.2" y="176.128"/>
      <point x="267.216" y="-20.48"/>
    </contour>
  </outline>
</glyph>
<glyph name="nine.pnum" format="2">
  <advance width="1250"/>
  <outline>
    <contour>
      <point x="534.264" y="0" type="line"/>
      <point x="1135.35" y="694.272" type="line" smooth="yes"/>
      <point x="1224.44" y="796.672"/>
      <point x="1279.74" y="916.48"/>
      <point x="1279.74" y="1052.67" type="curve" smooth="yes"/>
      <point x="1279.74" y="1300.48"/>
      <point x="1084.15" y="1468.42"/>
      <point x="842.488" y="1468.42" type="curve" smooth="yes"/>
      <point x="509.688" y="1468.42"/>
      <point x="175.864" y="1203.2"/>
      <point x="175.864" y="858.112" type="curve" smooth="yes"/>
      <point x="175.864" y="646.144"/>
      <point x="345.848" y="504.832"/>
      <point x="558.84" y="504.832" type="curve" smooth="yes"/>
      <point x="597.752" y="504.832"/>
      <point x="637.688" y="509.952"/>
      <point x="678.648" y="519.168" type="curve"/>
      <point x="191.224" y="0" type="line"/>
    </contour>
    <contour>
      <point x="664.312" y="715.776" type="curve" smooth="yes"/>
      <point x="561.912" y="715.776"/>
      <point x="457.464" y="772.096"/>
      <point x="457.464" y="885.76" type="curve" smooth="yes"/>
      <point x="457.464" y="1043.46"/>
      <point x="635.64" y="1193.98"/>
      <point x="788.216" y="1193.98" type="curve" smooth="yes"/>
      <point x="891.64" y="1193.98"/>
      <point x="996.088" y="1140.74"/>
      <point x="996.088" y="1024" type="curve" smooth="yes"/>
      <point x="996.088" y="866.304"/>
      <point x="815.864" y="715.776"/>
    </contour>
  </outline>
</glyph>
<glyph name="seven.pnum" format="2">
  <advance width="1229"/>
  <outline>
    <contour>
      <point x="373.144" y="0" type="line"/>
      <point x="1318.3" y="1298.43" type="line"/>
      <point x="1352.09" y="1446.91" type="line"/>
      <point x="282.008" y="1446.91" type="line"/>
      <point x="220.568" y="1180.67" type="line"/>
      <point x="933.272" y="1180.67" type="line"/>
      <point x="47.5119" y="0" type="line"/>
    </contour>
  </outline>
</glyph>
<glyph name="six.pnum" format="2">
  <advance width="1252"/>
  <outline>
    <contour>
      <point x="551.616" y="-20.48" type="curve" smooth="yes"/>
      <point x="878.272" y="-20.48"/>
      <point x="1218.24" y="243.712"/>
      <point x="1218.24" y="588.8" type="curve" smooth="yes"/>
      <point x="1218.24" y="851.968"/>
      <point x="1068.74" y="989.184"/>
      <point x="831.168" y="989.184" type="curve" smooth="yes"/>
      <point x="810.688" y="989.184"/>
      <point x="789.184" y="988.16"/>
      <point x="767.68" y="986.112" type="curve"/>
      <point x="1198.78" y="1446.91" type="line"/>
      <point x="858.816" y="1446.91" type="line"/>
      <point x="258.752" y="752.64" type="line" smooth="yes"/>
      <point x="167.094" y="646.593"/>
      <point x="115.392" y="536.576"/>
      <point x="115.392" y="393.216" type="curve" smooth="yes"/>
      <point x="115.392" y="144.384"/>
      <point x="310.976" y="-20.48"/>
    </contour>
    <contour>
      <point x="606.912" y="252.928" type="curve" smooth="yes"/>
      <point x="503.488" y="252.928"/>
      <point x="398.016" y="308.224"/>
      <point x="398.016" y="423.936" type="curve" smooth="yes"/>
      <point x="398.016" y="582.656"/>
      <point x="578.24" y="730.112"/>
      <point x="729.792" y="730.112" type="curve" smooth="yes"/>
      <point x="833.216" y="730.112"/>
      <point x="933.568" y="676.864"/>
      <point x="933.568" y="561.152" type="curve" smooth="yes"/>
      <point x="933.568" y="404.48"/>
      <point x="758.464" y="252.928"/>
    </contour>
  </outline>
</glyph>
